<?xml version="1.0" encoding="utf-8"?>
<!-- Generator: Adobe Illustrator 16.0.0, SVG Export Plug-In . SVG Version: 6.00 Build 0)  -->
<!DOCTYPE svg PUBLIC "-//W3C//DTD SVG 1.1//EN" "http://www.w3.org/Graphics/SVG/1.1/DTD/svg11.dtd">
<svg version="1.1" id="Capa_1" xmlns="http://www.w3.org/2000/svg" xmlns:xlink="http://www.w3.org/1999/xlink" x="0px" y="0px"
	 width="189.408px" height="187.192px" viewBox="0 0 189.408 187.192" enable-background="new 0 0 189.408 187.192"
	 xml:space="preserve">
<rect x="-1657.925" y="129.254" fill="#282828" width="1200" height="599.999"/>
<rect x="-1657.925" y="729.253" fill="#fe3406" width="1200" height="600"/>
<g>
	<defs>
		<rect id="SVGID_1_" x="-1657.925" y="129.253" width="1200" height="1200"/>
	</defs>
	<clipPath id="SVGID_2_">
		<use xlink:href="#SVGID_1_"  overflow="visible"/>
	</clipPath>
	<path clip-path="url(#SVGID_2_)" fill="#D93B27" d="M-1291.091,429.792h20.659c0.615,0,1.209,0.168,1.729,0.467
		c-0.006,0.09-0.013,0.179-0.013,0.271v39.582v16.596v21.342v2.829v2.275v11.108c0,2.308,2.239,3.954,4.442,3.264l3.223-1.009
		c8.528-3.369,18.7-7.002,30.776-10.789c0.214-0.45,0.338-0.947,0.338-1.468v-3.381v-2.829v-77.52c0-0.157-0.01-0.313-0.027-0.465
		v-0.273h0.027v-57.485c0-1.92-1.556-3.476-3.475-3.476h-17.785c-1.492,0-2.814,0.954-3.29,2.368
		c-5.455,16.233-16.203,28.462-32.721,31.419c-1.35,0.242-2.74,0.422-4.168,0.537c-1.802,0.145-3.191,1.651-3.191,3.459v19.702
		C-1294.567,428.235-1293.01,429.792-1291.091,429.792"/>
	<path clip-path="url(#SVGID_2_)" fill="#D93B27" d="M-1264.179,362.633c-0.777-0.794-1.843-1.286-3.022-1.286h-85.091h-3.199
		h-45.804c-4.214,0-7.63,3.096-7.63,6.913v24.9c0,1.356,1.213,2.454,2.708,2.454h51.26v19.173c0,0.075-0.015,0.139-0.021,0.21
		v112.865c0,1.036,0.679,1.946,1.669,2.253c12.711,3.939,24.193,8.694,33.288,12.916c1.564,0.727,3.35-0.416,3.35-2.14V401.007
		c0-0.281-0.054-0.558-0.113-0.833c-0.331-1.527,0.265-3.304,1.793-3.912c0.35-0.139,0.749-0.217,1.196-0.217h14.673
		c0.054-0.006,0.092-0.01,0.092-0.01c31.934-3.115,35.209-27.78,35.478-30.571c0.008-0.156,0.015-0.306,0.022-0.461v-0.682
		C-1263.53,363.694-1263.747,363.074-1264.179,362.633"/>
	<path clip-path="url(#SVGID_2_)" fill="#fe3406" d="M-829.421,440.236L-834,462.369c0,2.215,1.796,2.925,4.009,2.925h5.074
		c2.213,0,4.009-0.71,4.009-2.925l-4.58-22.133H-829.421z"/>
	<path clip-path="url(#SVGID_2_)" fill="#fe3406" d="M-820.908,442.629c0,3.615-2.931,6.546-6.546,6.546s-6.546-2.931-6.546-6.546
		s2.931-6.545,6.546-6.545S-820.908,439.014-820.908,442.629"/>
	<path clip-path="url(#SVGID_2_)" fill="#fe3406" d="M-793.574,370.167c0-19.819-15.954-35.943-35.565-35.943
		c-19.61,0-35.564,16.124-35.564,35.943v44.911h11.351v-44.911c0-13.561,10.862-24.593,24.214-24.593s24.215,11.032,24.215,24.593
		v15.134h0.014c-0.006,0.092-0.014,0.183-0.014,0.276c0,2.152,1.745,3.897,3.897,3.897h3.557c2.152,0,3.896-1.745,3.896-3.897
		c0-0.093-0.008-0.184-0.014-0.276h0.014V370.167z"/>
	<path clip-path="url(#SVGID_2_)" fill="#fe3406" d="M-1206.637,415.1c8.319-11.472,22.254-18.938,37.644-18.756
		c24.75,0,45.547,19.303,45.547,43.704c0,24.4-20.797,43.703-45.755,43.703c-15.39,0-29.117-7.284-37.436-18.574v48.803v3.641
		h-8.319v-3.641v-73.932v-40.063v-3.641h8.319v3.641V415.1z M-1206.637,440.048c0,20.03,16.639,36.419,37.436,36.419
		c20.798,0,37.436-16.389,37.436-36.419c0-20.031-16.638-36.42-37.228-36.42C-1189.791,403.445-1206.221,420.018-1206.637,440.048"
		/>
	<path clip-path="url(#SVGID_2_)" fill="none" stroke="#fe3406" stroke-width="5" stroke-miterlimit="10" d="M-1206.637,415.1
		c8.319-11.472,22.254-18.938,37.644-18.756c24.75,0,45.547,19.303,45.547,43.704c0,24.4-20.797,43.703-45.755,43.703
		c-15.39,0-29.117-7.284-37.436-18.574v48.803v3.641h-8.319v-3.641v-73.932v-40.063v-3.641h8.319v3.641V415.1z M-1206.637,440.048
		c0,20.03,16.639,36.419,37.436,36.419c20.798,0,37.436-16.389,37.436-36.419c0-20.031-16.638-36.42-37.228-36.42
		C-1189.791,403.445-1206.221,420.018-1206.637,440.048z"/>
	<path clip-path="url(#SVGID_2_)" fill="#fe3406" d="M-1106.804,440.048c0-24.401,20.798-43.704,45.755-43.704
		c15.39,0,29.116,7.284,37.435,18.574v-14.933v-3.641h8.319v3.641v40.063v40.062v3.641h-8.319v-3.641v-14.933
		c-8.318,11.29-22.045,18.574-37.435,18.574C-1086.006,483.751-1106.804,464.448-1106.804,440.048 M-1098.485,440.048
		c0,20.03,16.638,36.419,37.436,36.419c20.797,0,37.435-16.389,37.435-36.419c0-20.031-16.638-36.42-37.435-36.42
		C-1081.847,403.628-1098.485,420.018-1098.485,440.048"/>
	<path clip-path="url(#SVGID_2_)" fill="none" stroke="#fe3406" stroke-width="5" stroke-miterlimit="10" d="M-1106.804,440.048
		c0-24.401,20.798-43.704,45.755-43.704c15.39,0,29.116,7.284,37.435,18.574v-14.933v-3.641h8.319v3.641v40.063v40.062v3.641h-8.319
		v-3.641v-14.933c-8.318,11.29-22.045,18.574-37.435,18.574C-1086.006,483.751-1106.804,464.448-1106.804,440.048z
		 M-1098.485,440.048c0,20.03,16.638,36.419,37.436,36.419c20.797,0,37.435-16.389,37.435-36.419
		c0-20.031-16.638-36.42-37.435-36.42C-1081.847,403.628-1098.485,420.018-1098.485,440.048z"/>
	<path clip-path="url(#SVGID_2_)" fill="#fe3406" d="M-990.335,440.048c0-24.401,20.797-43.704,45.755-43.704
		c15.391,0,29.116,7.284,37.436,18.574v-14.933v-3.459h8.735l-0.208,3.642l-0.208,79.942c0,15.66-17.678,37.33-45.547,37.511h-4.16
		v-7.284h4.16c22.461-0.182,37.228-17.481,37.228-30.227v-14.933c-8.319,11.29-22.045,18.574-37.436,18.574
		C-969.538,483.751-990.335,464.448-990.335,440.048 M-982.017,440.048c0,20.03,16.639,36.419,37.437,36.419
		s37.436-16.389,37.436-36.419c0-20.031-16.638-36.42-37.436-36.42S-982.017,420.018-982.017,440.048"/>
	<path clip-path="url(#SVGID_2_)" fill="none" stroke="#fe3406" stroke-width="5" stroke-miterlimit="10" d="M-990.335,440.048
		c0-24.401,20.797-43.704,45.755-43.704c15.391,0,29.116,7.284,37.436,18.574v-14.933v-3.459h8.735l-0.208,3.642l-0.208,79.942
		c0,15.66-17.678,37.33-45.547,37.511h-4.16v-7.284h4.16c22.461-0.182,37.228-17.481,37.228-30.227v-14.933
		c-8.319,11.29-22.045,18.574-37.436,18.574C-969.538,483.751-990.335,464.448-990.335,440.048z M-982.017,440.048
		c0,20.03,16.639,36.419,37.437,36.419s37.436-16.389,37.436-36.419c0-20.031-16.638-36.42-37.436-36.42
		S-982.017,420.018-982.017,440.048z"/>
	<path clip-path="url(#SVGID_2_)" fill="#fe3406" d="M-873.864,440.048c0-24.401,20.797-43.704,45.755-43.704
		c24.957,0,45.755,19.303,45.755,43.704c0,24.4-20.798,43.703-45.755,43.703C-853.067,483.751-873.864,464.448-873.864,440.048
		 M-865.546,440.048c0,20.03,16.639,36.419,37.437,36.419s37.436-16.389,37.436-36.419c0-20.031-16.638-36.42-37.436-36.42
		S-865.546,420.018-865.546,440.048"/>
	<path clip-path="url(#SVGID_2_)" fill="none" stroke="#fe3406" stroke-width="5" stroke-miterlimit="10" d="M-873.864,440.048
		c0-24.401,20.797-43.704,45.755-43.704c24.957,0,45.755,19.303,45.755,43.704c0,24.4-20.798,43.703-45.755,43.703
		C-853.067,483.751-873.864,464.448-873.864,440.048z M-865.546,440.048c0,20.03,16.639,36.419,37.437,36.419
		s37.436-16.389,37.436-36.419c0-20.031-16.638-36.42-37.436-36.42S-865.546,420.018-865.546,440.048z"/>
	<path clip-path="url(#SVGID_2_)" fill="#fe3406" d="M-691.883,419.834h-8.319c0-9.469-12.895-16.206-26.829-16.206
		s-26.829,6.737-26.829,16.206c0,17.846,65.721,14.933,65.513,40.427c0,12.2-16.015,23.49-38.684,23.49
		c-22.67,0-38.684-11.29-38.684-23.49h8.319c0,9.65,14.766,16.206,30.364,16.206s30.364-6.556,30.364-16.206
		c0-18.029-65.305-14.75-65.513-40.427c0-12.382,14.975-23.49,35.148-23.49S-691.883,407.453-691.883,419.834"/>
	<path clip-path="url(#SVGID_2_)" fill="none" stroke="#fe3406" stroke-width="5" stroke-miterlimit="10" d="M-691.883,419.834
		h-8.319c0-9.469-12.895-16.206-26.829-16.206s-26.829,6.737-26.829,16.206c0,17.846,65.721,14.933,65.513,40.427
		c0,12.2-16.015,23.49-38.684,23.49c-22.67,0-38.684-11.29-38.684-23.49h8.319c0,9.65,14.766,16.206,30.364,16.206
		s30.364-6.556,30.364-16.206c0-18.029-65.305-14.75-65.513-40.427c0-12.382,14.975-23.49,35.148-23.49
		S-691.883,407.453-691.883,419.834z"/>
	<path clip-path="url(#SVGID_2_)" fill="#D93B27" d="M-1291.091,1018.655h20.659c0.615,0,1.209,0.169,1.729,0.468
		c-0.006,0.09-0.013,0.179-0.013,0.271v39.582v16.596v21.342v2.829v2.276v11.106c0,2.309,2.239,3.954,4.442,3.265l3.223-1.009
		c8.528-3.369,18.7-7.002,30.776-10.789c0.214-0.45,0.338-0.947,0.338-1.468v-3.382v-2.829v-77.52c0-0.157-0.01-0.312-0.027-0.464
		v-0.274h0.027v-57.485c0-1.919-1.556-3.476-3.475-3.476h-17.785c-1.492,0-2.814,0.954-3.29,2.368
		c-5.455,16.233-16.203,28.462-32.721,31.419c-1.35,0.242-2.74,0.422-4.168,0.537c-1.802,0.145-3.191,1.651-3.191,3.46v19.701
		C-1294.567,1017.099-1293.01,1018.655-1291.091,1018.655"/>
	<path clip-path="url(#SVGID_2_)" fill="#D93B27" d="M-1264.179,951.497c-0.777-0.795-1.843-1.286-3.022-1.286h-85.091h-3.199
		h-45.804c-4.214,0-7.63,3.096-7.63,6.913v24.9c0,1.355,1.213,2.454,2.708,2.454h51.26v19.173c0,0.075-0.015,0.139-0.021,0.21
		v112.865c0,1.035,0.679,1.945,1.669,2.252c12.711,3.94,24.193,8.694,33.288,12.917c1.564,0.727,3.35-0.416,3.35-2.141V989.871
		c0-0.281-0.054-0.558-0.113-0.833c-0.331-1.527,0.265-3.304,1.793-3.912c0.35-0.14,0.749-0.218,1.196-0.218h14.673
		c0.054-0.006,0.092-0.009,0.092-0.009c31.934-3.115,35.209-27.781,35.478-30.572c0.008-0.154,0.015-0.305,0.022-0.46v-0.682
		C-1263.53,952.558-1263.747,951.938-1264.179,951.497"/>
	<path clip-path="url(#SVGID_2_)" fill="#282828" d="M-829.421,1028.1l-4.579,22.133c0,2.215,1.796,2.925,4.009,2.925h5.074
		c2.213,0,4.009-0.71,4.009-2.925l-4.58-22.133H-829.421z"/>
	<path clip-path="url(#SVGID_2_)" fill="#282828" d="M-820.908,1030.494c0,3.614-2.931,6.545-6.546,6.545s-6.546-2.931-6.546-6.545
		c0-3.615,2.931-6.546,6.546-6.546S-820.908,1026.878-820.908,1030.494"/>
	<path clip-path="url(#SVGID_2_)" fill="#282828" d="M-793.574,956.031c0-19.819-15.954-35.943-35.565-35.943
		c-19.61,0-35.564,16.124-35.564,35.943v44.91h11.351v-44.91c0-13.561,10.862-24.593,24.214-24.593s24.215,11.032,24.215,24.593
		v15.134h0.014c-0.006,0.092-0.014,0.183-0.014,0.276c0,2.151,1.745,3.897,3.897,3.897h3.557c2.152,0,3.896-1.746,3.896-3.897
		c0-0.094-0.008-0.185-0.014-0.276h0.014V956.031z"/>
	<path clip-path="url(#SVGID_2_)" fill="#282828" d="M-1206.637,1002.963c8.319-11.472,22.254-18.938,37.644-18.756
		c24.75,0,45.547,19.303,45.547,43.704c0,24.4-20.797,43.703-45.755,43.703c-15.39,0-29.117-7.284-37.436-18.574v48.803v3.642
		h-8.319v-3.642v-73.932v-40.063v-3.642h8.319v3.642V1002.963z M-1206.637,1027.912c0,20.03,16.639,36.419,37.436,36.419
		c20.798,0,37.436-16.389,37.436-36.419c0-20.031-16.638-36.42-37.228-36.42C-1189.791,991.309-1206.221,1007.88-1206.637,1027.912"
		/>
	<path clip-path="url(#SVGID_2_)" fill="none" stroke="#282828" stroke-width="5" stroke-miterlimit="10" d="M-1206.637,1002.963
		c8.319-11.472,22.254-18.938,37.644-18.756c24.75,0,45.547,19.303,45.547,43.704c0,24.4-20.797,43.703-45.755,43.703
		c-15.39,0-29.117-7.284-37.436-18.574v48.803v3.642h-8.319v-3.642v-73.932v-40.063v-3.642h8.319v3.642V1002.963z
		 M-1206.637,1027.912c0,20.03,16.639,36.419,37.436,36.419c20.798,0,37.436-16.389,37.436-36.419
		c0-20.031-16.638-36.42-37.228-36.42C-1189.791,991.309-1206.221,1007.88-1206.637,1027.912z"/>
	<path clip-path="url(#SVGID_2_)" fill="#282828" d="M-1106.804,1027.912c0-24.401,20.798-43.704,45.755-43.704
		c15.39,0,29.116,7.284,37.435,18.574v-14.933v-3.642h8.319v3.642v40.063v40.063v3.641h-8.319v-3.641v-14.934
		c-8.318,11.29-22.045,18.574-37.435,18.574C-1086.006,1071.615-1106.804,1052.312-1106.804,1027.912 M-1098.485,1027.912
		c0,20.03,16.638,36.419,37.436,36.419c20.797,0,37.435-16.389,37.435-36.419c0-20.031-16.638-36.42-37.435-36.42
		C-1081.847,991.492-1098.485,1007.88-1098.485,1027.912"/>
	<path clip-path="url(#SVGID_2_)" fill="none" stroke="#282828" stroke-width="5" stroke-miterlimit="10" d="M-1106.804,1027.912
		c0-24.401,20.798-43.704,45.755-43.704c15.39,0,29.116,7.284,37.435,18.574v-14.933v-3.642h8.319v3.642v40.063v40.063v3.641h-8.319
		v-3.641v-14.934c-8.318,11.29-22.045,18.574-37.435,18.574C-1086.006,1071.615-1106.804,1052.312-1106.804,1027.912z
		 M-1098.485,1027.912c0,20.03,16.638,36.419,37.436,36.419c20.797,0,37.435-16.389,37.435-36.419
		c0-20.031-16.638-36.42-37.435-36.42C-1081.847,991.492-1098.485,1007.88-1098.485,1027.912z"/>
	<path clip-path="url(#SVGID_2_)" fill="#282828" d="M-990.335,1027.912c0-24.401,20.797-43.704,45.755-43.704
		c15.391,0,29.116,7.284,37.436,18.574v-14.933v-3.459h8.735l-0.208,3.642l-0.208,79.942c0,15.659-17.678,37.329-45.547,37.511
		h-4.16v-7.284h4.16c22.461-0.182,37.228-17.481,37.228-30.227v-14.934c-8.319,11.29-22.045,18.574-37.436,18.574
		C-969.538,1071.615-990.335,1052.312-990.335,1027.912 M-982.017,1027.912c0,20.03,16.639,36.419,37.437,36.419
		s37.436-16.389,37.436-36.419c0-20.031-16.638-36.42-37.436-36.42S-982.017,1007.88-982.017,1027.912"/>
	<path clip-path="url(#SVGID_2_)" fill="none" stroke="#282828" stroke-width="5" stroke-miterlimit="10" d="M-990.335,1027.912
		c0-24.401,20.797-43.704,45.755-43.704c15.391,0,29.116,7.284,37.436,18.574v-14.933v-3.459h8.735l-0.208,3.642l-0.208,79.942
		c0,15.659-17.678,37.329-45.547,37.511h-4.16v-7.284h4.16c22.461-0.182,37.228-17.481,37.228-30.227v-14.934
		c-8.319,11.29-22.045,18.574-37.436,18.574C-969.538,1071.615-990.335,1052.312-990.335,1027.912z M-982.017,1027.912
		c0,20.03,16.639,36.419,37.437,36.419s37.436-16.389,37.436-36.419c0-20.031-16.638-36.42-37.436-36.42
		S-982.017,1007.88-982.017,1027.912z"/>
	<path clip-path="url(#SVGID_2_)" fill="#282828" d="M-873.864,1027.912c0-24.401,20.797-43.704,45.755-43.704
		c24.957,0,45.755,19.303,45.755,43.704c0,24.4-20.798,43.703-45.755,43.703C-853.067,1071.615-873.864,1052.312-873.864,1027.912
		 M-865.546,1027.912c0,20.03,16.639,36.419,37.437,36.419s37.436-16.389,37.436-36.419c0-20.031-16.638-36.42-37.436-36.42
		S-865.546,1007.88-865.546,1027.912"/>
	<path clip-path="url(#SVGID_2_)" fill="none" stroke="#282828" stroke-width="5" stroke-miterlimit="10" d="M-873.864,1027.912
		c0-24.401,20.797-43.704,45.755-43.704c24.957,0,45.755,19.303,45.755,43.704c0,24.4-20.798,43.703-45.755,43.703
		C-853.067,1071.615-873.864,1052.312-873.864,1027.912z M-865.546,1027.912c0,20.03,16.639,36.419,37.437,36.419
		s37.436-16.389,37.436-36.419c0-20.031-16.638-36.42-37.436-36.42S-865.546,1007.88-865.546,1027.912z"/>
	<path clip-path="url(#SVGID_2_)" fill="#282828" d="M-691.883,1007.698h-8.319c0-9.469-12.895-16.206-26.829-16.206
		s-26.829,6.737-26.829,16.206c0,17.846,65.721,14.933,65.513,40.427c0,12.2-16.015,23.49-38.684,23.49
		c-22.67,0-38.684-11.29-38.684-23.49h8.319c0,9.65,14.766,16.206,30.364,16.206s30.364-6.556,30.364-16.206
		c0-18.028-65.305-14.75-65.513-40.427c0-12.382,14.975-23.49,35.148-23.49S-691.883,995.316-691.883,1007.698"/>
	<path clip-path="url(#SVGID_2_)" fill="none" stroke="#282828" stroke-width="5" stroke-miterlimit="10" d="M-691.883,1007.698
		h-8.319c0-9.469-12.895-16.206-26.829-16.206s-26.829,6.737-26.829,16.206c0,17.846,65.721,14.933,65.513,40.427
		c0,12.2-16.015,23.49-38.684,23.49c-22.67,0-38.684-11.29-38.684-23.49h8.319c0,9.65,14.766,16.206,30.364,16.206
		s30.364-6.556,30.364-16.206c0-18.028-65.305-14.75-65.513-40.427c0-12.382,14.975-23.49,35.148-23.49
		S-691.883,995.316-691.883,1007.698z"/>
</g>
<g>
	<path fill="#fe3406" d="M121.167,71.417h20.659c0.615,0,1.209,0.168,1.729,0.467c-0.006,0.09-0.013,0.179-0.013,0.271v39.581
		v16.597v21.342v2.828v2.275v11.108c0,2.308,2.239,3.954,4.442,3.264l3.223-1.009c8.527-3.369,18.7-7.002,30.775-10.789
		c0.215-0.45,0.338-0.947,0.338-1.469v-3.381v-2.828v-77.52c0-0.158-0.01-0.313-0.026-0.466v-0.272h0.026V13.932
		c0-1.92-1.555-3.476-3.475-3.476h-17.785c-1.492,0-2.813,0.954-3.289,2.368c-5.455,16.233-16.203,28.462-32.722,31.419
		c-1.35,0.242-2.739,0.422-4.168,0.537c-1.802,0.145-3.19,1.651-3.19,3.459V67.94C117.691,69.86,119.248,71.417,121.167,71.417"/>
	<path fill="#fe3406" d="M148.079,4.258c-0.776-0.794-1.843-1.286-3.022-1.286h-85.09h-3.199H10.963c-4.214,0-7.63,3.096-7.63,6.913
		v24.9c0,1.356,1.213,2.454,2.708,2.454h51.26v19.173c0,0.075-0.015,0.139-0.021,0.21v112.866c0,1.035,0.679,1.945,1.669,2.252
		c12.711,3.939,24.193,8.695,33.288,12.916c1.563,0.728,3.35-0.416,3.35-2.14V42.632c0-0.281-0.054-0.558-0.112-0.833
		c-0.332-1.527,0.265-3.304,1.793-3.912c0.35-0.139,0.748-0.217,1.195-0.217h14.674c0.053-0.006,0.092-0.01,0.092-0.01
		c31.934-3.115,35.209-27.78,35.478-30.571c0.008-0.156,0.015-0.306,0.022-0.461V5.946C148.729,5.319,148.512,4.699,148.079,4.258"
		/>
</g>
</svg>
